<!-- Generator: Adobe Illustrator 19.0.0, SVG Export Plug-In  -->
<svg version="1.1"
	 xmlns="http://www.w3.org/2000/svg" xmlns:xlink="http://www.w3.org/1999/xlink" xmlns:a="http://ns.adobe.com/AdobeSVGViewerExtensions/3.0/"
	 x="0px" y="0px" width="71.1px" height="67.3px" viewBox="0 0 71.1 67.3" style="enable-background:new 0 0 71.1 67.3;"
	 xml:space="preserve">
<style type="text/css">
	.st0{fill:#FFFFFF;}
</style>
<defs>
</defs>
<g id="Logo_UNET_1_">
	<g id="XMLID_16_">
		<polygon id="XMLID_21_" class="st0" points="3.8,36.5 3.8,26.8 2.7,25.9 2.7,2.7 68.4,2.7 68.4,25.9 67.2,26.8 67.2,36.5 
			71.1,34.4 71.1,0 0,0 0,34.4 		"/>
		<polygon id="XMLID_20_" class="st0" points="4.8,3.6 4.8,37.2 8.6,39.2 8.6,30 7.2,29.1 7.2,6.2 63.8,6.2 63.8,29.1 62.5,30 
			62.5,39.2 66.3,37.2 66.3,3.6 		"/>
		<polygon id="XMLID_19_" class="st0" points="9.5,7.1 9.5,39.9 13.3,42 13.3,32.8 12.2,31.9 12.2,9.7 58.9,9.7 58.9,31.9 
			57.8,32.8 57.8,42 61.6,39.9 61.6,7.1 		"/>
		<polygon id="XMLID_18_" class="st0" points="14.1,10.6 14.1,42.2 18.2,44.9 18.2,35.4 16.8,34.5 16.8,13.3 54.3,13.3 54.3,34.5 
			53.2,35.4 53.2,44.7 57,42.6 57,10.6 		"/>
		<polygon id="XMLID_17_" class="st0" points="18.8,14.2 18.8,45.1 22.9,47.3 22.9,38 21.5,37.3 21.5,16.8 49.5,16.8 49.5,37.3 
			48.8,38 48.8,47.3 52.2,45.4 52.2,14.2 		"/>
	</g>
	<polygon id="XMLID_15_" class="st0" points="1.8,64.1 1,67.3 34.2,67.3 34.2,47.6 35.3,47.6 35.3,37.4 36.2,37.4 36.2,47.6 
		37,47.6 37,67.3 70.3,67.3 69.4,64.1 62.6,64.1 62.6,65 39.3,65 39.3,47.6 39.3,37.4 40.3,37.4 40.3,47.6 41.1,47.6 41.1,63.5 
		69.4,63.5 68.5,60.2 62.4,60.2 62.4,61.4 43.5,61.4 43.5,47.6 43.5,37.4 44.4,37.4 44.4,47.6 45.3,47.6 45.3,59.9 68.7,59.9 
		67.8,57 62.6,57 62.6,57.9 47.6,57.9 47.6,17.7 23.7,17.7 23.7,57.9 8.7,57.9 8.7,57 3.4,57 2.6,59.9 26,59.9 26,47.6 27,47.6 
		27,37.4 27.9,37.4 27.9,47.6 27.9,61.4 8.8,61.4 8.8,60.2 2.7,60.2 1.9,63.5 29.9,63.5 29.9,47.6 31.1,47.6 31.1,37.4 31.9,37.4 
		31.9,47.6 31.9,65 8.7,65 8.7,64.1 	"/>
</g>
</svg>